Patient4_TMGait_0pt7_02_left_04_EMG.mot
version=1
nRows=13
nColumns=33
inDegrees=no
endheader
time	1LAddLong	2LGlutMax	3LGlutMed	4LIliopsoas	5LSemiMemb	6LBicFemLong	7LRecFem	8LVastMed	9LVastLat	10LGasMed	11LTibAnt	12lTibPost	13LPeroneusLong	14LSol	15LExtDigLong	16LFlexDigLong	17RAddLong	18RGlutMax	19RGlutMed	20RIliopsoas	21RSemiMemb	22RBicFemLong	23RRecFem	24RVastMed	25RVastLat	26RGasMed	27RTibAnt	28RTibPost	29RPeroneusLong	30RSol	31RExtDigLong	32RFlexDigLong
4.57	-0.007324	0.54871	-0.13062	0.007935	-0.15167	0.23682	0.31128	0.048065	-0.43335	-0.016174	0.078735	0.10178	-0.16022	0.21576	0.17441	0.033875	0.089874	0.69519	0.46753	0.17242	-0.032959	0.008545	0.78095	-0.065613	0.038147	-0.021667	-0.002899	0.056458	0.38452	1.093	-0.004578	0.002289
4.571	0.008087	0.63629	-0.19699	-0.009766	-0.063934	0.1915	0.26947	0.022888	-0.37643	-0.1535	0.017548	0.060272	-0.011292	0.31769	0.26321	0.038757	0.076141	0.52963	0.57816	0.20401	-0.011902	0.030823	0.78476	-0.074768	0.045319	-0.002899	0.051575	-0.029144	0.66986	1.1385	-0.001678	-0.005951
4.572	0.024872	0.70221	-0.17868	-0.004578	0.069122	-0.045013	0.29923	-0.00061	-0.26169	0.33493	-0.055847	0.030975	0.1918	0.33875	0.13016	0.065002	0.052032	0.36682	0.71686	0.13962	-0.017242	0.020294	0.76843	-0.027161	0.051422	0.027924	0.002289	-0.06485	0.89951	0.000763	0.002136	-0.010986
4.573	0.032501	0.68634	0.003815	-0.005341	0.075684	-0.59143	0.44174	-0.00885	-0.24612	1.1388	-0.068054	0.003357	0.086975	0.27954	0.11444	0.077362	0.02121	0.21255	0.75134	0.011444	-0.026093	0.045624	0.75195	-0.001678	0.037384	0.03067	-0.044861	-0.091248	0.3772	-0.40009	-0.001068	-0.004883
4.574	0.02655	0.63431	0.11337	0.016632	-0.004425	-0.46555	0.49576	-0.007324	-0.34637	0.62561	-0.078735	-0.014954	-0.073395	0.16785	0.074005	0.096588	0.021362	0.037842	0.81802	-0.078278	-0.024567	0.052338	0.74799	-0.046539	0.023804	0.006866	-0.004272	-0.21301	-0.34561	-0.042725	0.009918	-0.003357
4.575	0.017242	0.58044	0.079498	0.029602	-0.055389	-0.26642	0.45059	-0.008392	-0.47699	0.25986	-0.055542	0.001068	0.002899	-0.17303	0.071411	0.076447	0.019226	-0.074615	0.81268	-0.12985	-0.02594	0.025177	0.72678	-0.018005	0.033112	-0.063171	0.21255	-0.24994	-0.27908	0.36026	0.000153	-0.009918
4.576	0.013885	0.57342	0.003204	0.010071	-0.096588	-0.19898	0.41733	-0.015411	-0.4097	-0.36285	0.010223	0.006714	0.31708	-0.42648	0.033569	0.041046	0.019989	-0.32272	0.78934	-0.084381	-0.045319	-0.007019	0.74554	-0.030823	0.014648	-0.076294	0.45914	-0.12665	-0.099182	0.61401	0.000916	-0.018463
4.577	0.005646	0.60532	-0.020142	0.007172	-0.10971	-0.075989	0.45151	-0.001526	-0.26688	0.16769	0.02243	0.01358	-0.016937	-0.74631	-0.007019	0.004425	-0.003967	-0.43121	0.61859	-0.072937	-0.053253	-0.040283	0.7489	-0.008698	0.023956	-0.039368	0.44022	-0.54596	-0.10071	-0.056458	-0.002136	-0.021973
4.578	0.026398	0.56717	-0.07431	0.01358	-0.12665	0.029602	0.5513	0.014191	-0.15488	0.77713	0.01236	0.000153	-0.025024	-0.54855	0.053101	0.023956	-0.03067	-0.55847	0.48874	-0.043793	-0.067444	-0.076752	0.7486	-0.024872	0.024872	-0.021057	0.27176	0.46768	0.29419	-0.2002	0.000305	-0.019379
4.579	0.033264	0.57404	-0.10117	0.002594	-0.13245	0.20126	0.62897	0.025635	-0.097504	0.4158	0.030823	-0.051727	0.064392	-0.21164	0.011749	0.05188	0.001526	-0.70252	0.50568	-0.005188	-0.050201	-0.09552	0.75821	-0.071869	0.012054	0.00351	-0.1796	0.30045	0.45959	-0.64636	-0.001526	-0.023346
4.58	-0.029144	0.45197	-0.13779	0.023041	-0.15549	0.54108	0.68298	0.015869	-0.031891	0.64743	-0.017395	-0.10498	-0.44357	-0.001526	-0.032501	0.047302	0.036011	-0.81802	0.49027	0.032959	-0.055084	-0.11902	0.77866	-0.082092	0.00946	0.008392	-0.56427	0.08606	0.3006	-0.79544	0.000458	-0.014038
4.581	-0.037384	0.29327	-0.21988	0.011902	-0.11429	0.74265	0.73379	0.007019	0.049591	0.70023	0.076141	-0.11154	-0.52445	0.22095	0.008087	0.067749	0.024567	-0.95154	0.43381	0.048676	-0.081024	-0.083618	0.8046	-0.090179	0.011292	-0.007629	-0.51376	-0.043182	-0.022278	-0.42801	0.001678	0.002441
4.582	-0.016937	0.1471	-0.19165	-0.010529	-0.094604	0.86212	0.80749	-0.005035	0.061493	-0.24124	0.028229	-0.087891	0.44983	0.15564	-0.020905	0.063934	-0.061188	-0.99655	0.32471	0.072937	-0.081635	-0.028992	0.7988	-0.12726	0.015564	-0.001373	-0.15778	0.001068	0.057373	0.20477	0.000763	0.001221
